<?xml version="1.0" encoding="utf-8"?>
<!-- Generator: Adobe Illustrator 15.1.0, SVG Export Plug-In . SVG Version: 6.00 Build 0)  -->
<!DOCTYPE svg PUBLIC "-//W3C//DTD SVG 1.1//EN" "http://www.w3.org/Graphics/SVG/1.1/DTD/svg11.dtd">
<svg version="1.1" id="Layer_1" xmlns="http://www.w3.org/2000/svg" xmlns:xlink="http://www.w3.org/1999/xlink" x="0px" y="0px"
	 width="600px" height="768px" viewBox="0 0 600 768" enable-background="new 0 0 600 768" xml:space="preserve">
<g>
	<path fill="#5B5A66" d="M522,204.831c0-18.27-15.153-27.831-33.441-27.831H108.098C89.815,177,75,186.561,75,204.831V608.83
		C75,627.1,89.815,636,108.098,636h380.461c18.288,0,33.441-8.9,33.441-27.17V204.831z M302.062,295.345
		c28.102,0,50.889,22.774,50.889,50.888c0,28.097-22.787,50.877-50.889,50.877c-28.104,0-50.889-22.78-50.889-50.877
		C251.174,318.12,273.959,295.345,302.062,295.345z M302.062,531.469c-61.358,0-97.45-3.721-97.45-45.227
		c-0.006-30.812,17.404-70.322,56.618-87.562c13.614-5.982,3.916,13.73,41.165,13.627c35.249-0.103,30.151-20.482,42.287-15.863
		c42.117,16.033,57.489,57.562,57.489,89.799C402.172,527.748,363.407,531.469,302.062,531.469z"/>
	<path fill="#D1D1D1" d="M430.571,128h-92.351c0.023,0,0.091-1.159,0.091-1.729c0-25.763-20.889-46.679-46.651-46.679
		c-25.77,0-46.651,20.933-46.651,46.708c0,0.551,0.073,1.699,0.085,1.699h-89.036C137.855,128,124,142.752,124,160.962v23.107
		C124,202.273,137.855,215,156.058,215h274.513C448.774,215,447,202.273,447,184.069v-23.107C447,142.752,448.774,128,430.571,128z
		 M294.436,104.218c12.912,0,21.916,10.456,21.916,23.361c0,0.091-0.736,0.182-0.749,0.273c-0.145,12.778-7.99,23.089-20.805,23.089
		c-12.797,0-20.798-10.311-20.798-23.089c0-0.091,0-0.182,0-0.273C274,114.674,281.548,104.218,294.436,104.218z"/>
</g>
</svg>
