<?xml version="1.0" encoding="utf-8"?>
<!-- Generator: Adobe Illustrator 15.1.0, SVG Export Plug-In . SVG Version: 6.00 Build 0)  -->
<!DOCTYPE svg PUBLIC "-//W3C//DTD SVG 1.1//EN" "http://www.w3.org/Graphics/SVG/1.1/DTD/svg11.dtd">
<svg version="1.1" id="Layer_1" xmlns="http://www.w3.org/2000/svg" xmlns:xlink="http://www.w3.org/1999/xlink" x="0px" y="0px"
	 width="512px" height="512px" viewBox="0 0 512 512" enable-background="new 0 0 512 512" xml:space="preserve">
<path id="magnifier-icon" fill="#FFFFFF" d="M105.082,462l109.801-109.802c24.322,14.52,52.729,22.876,83.055,22.876
	c89.623,0,162.537-72.914,162.537-162.537S387.561,50,297.938,50c-89.625,0-162.538,72.914-162.537,162.537
	c0,31.91,9.25,61.695,25.199,86.833L51.525,408.443L105.082,462z M297.938,314.482c-56.212,0-101.945-45.732-101.945-101.945
	s45.733-101.946,101.945-101.946c56.214,0,101.945,45.733,101.945,101.946S354.15,314.482,297.938,314.482z"/>
</svg>
