<?xml version="1.0" encoding="utf-8"?>
<!-- Generator: Adobe Illustrator 15.1.0, SVG Export Plug-In . SVG Version: 6.00 Build 0)  -->
<!DOCTYPE svg PUBLIC "-//W3C//DTD SVG 1.1//EN" "http://www.w3.org/Graphics/SVG/1.1/DTD/svg11.dtd">
<svg version="1.1" id="Layer_1" xmlns="http://www.w3.org/2000/svg" xmlns:xlink="http://www.w3.org/1999/xlink" x="0px" y="0px"
	 width="600px" height="768px" viewBox="0 0 600 768" enable-background="new 0 0 600 768" xml:space="preserve">
<g>
	<path fill="#5B5A66" d="M270,110.006c0-5.526-4.48-10.006-10.006-10.006H148.006C142.48,100,138,104.48,138,110.006v120.987
		c0,5.526,4.48,10.006,10.006,10.006h111.988c5.526,0,10.006-4.48,10.006-10.006V110.006z M206.644,136.598
		c8.496,0,15.384,6.887,15.384,15.383c0,8.496-6.888,15.383-15.384,15.383c-8.495,0-15.383-6.887-15.383-15.383
		C191.261,143.485,198.148,136.598,206.644,136.598z M206.644,207.983c-18.547,0-29.459-1.125-29.459-13.674
		c-0.001-9.315,5.262-21.258,17.117-26.47c4.116-1.81,1.182,4.149,12.442,4.117c10.659-0.031,9.119-6.191,12.787-4.794
		c12.732,4.847,17.376,17.404,17.376,27.147C236.907,206.859,225.189,207.983,206.644,207.983z"/>
	<path fill="#D1D1D1" d="M245.494,86h-27.917c0.006,0,0.025-0.348,0.025-0.517c0-7.788-6.313-14.11-14.103-14.11
		c-7.788,0-14.102,6.326-14.102,14.114c0,0.169,0.02,0.513,0.025,0.513h-26.918C157.003,86,152,90.469,152,95.973v6.987
		c0,5.503,5.003,10.04,10.506,10.04h82.988c5.503,0,9.506-4.537,9.506-10.04v-6.987C255,90.469,250.997,86,245.494,86z
		 M203.461,78.819c3.9,0,7.062,3.162,7.062,7.062c0,0.029-0.004,0.056-0.005,0.085c-0.046,3.861-3.187,6.978-7.058,6.978
		c-3.872,0-7.013-3.117-7.059-6.978c0-0.029-0.004-0.056-0.004-0.085C196.398,81.981,199.561,78.819,203.461,78.819z"/>
</g>
</svg>
